<svg viewBox="0 0 1280 268" xmlns="http://www.w3.org/2000/svg" fill-rule="evenodd" clip-rule="evenodd" stroke-linejoin="round" stroke-miterlimit="1.41421">

    <style>
        .spider-dangle {
            transform-origin: 1020px 300px;
            animation: dangle 2s linear infinite;
        }
        @keyframes dangle {
            0% {
                transform: rotate(0deg);
            }
            25% {
                transform: rotate(10deg);
            }
            50% {
                transform: rotate(0deg);
            }
            75% {
                transform: rotate(-10deg);
            }
            100% {
                transform: rotate(0deg);
            }
        }

        .gate-right {
            transform-origin: center right;
            animation: gate_hinge_right 6s linear infinite;
        }
        
        @keyframes gate_hinge_right {
            0% {
                transform: rotateY(0deg);
            }
            25% {
                transform: rotateY(35deg);
            }
            50% {
                transform: rotateY(0deg);
            }
            75% {
                transform: rotateY(-35deg);
            }
            100% {
                transform: rotateY(0deg);
            }
        }
        
        .gate-left {
            transform-origin: center left;
            animation: gate_hinge_left 4s linear infinite;
        }
        
        @keyframes gate_hinge_left {
            0% {
                transform: rotateY(0deg);
            }
            25% {
                transform: rotateY(25deg);
            }
            50% {
                transform: rotateY(0deg);
            }
            75% {
                transform: rotateY(-25deg);
            }
            100% {
                transform: rotateY(0deg);
            }
        }
        
        .tree {
            transform-origin: 120px 160px;
            animation: tree_wind 4s linear infinite;
        }
        
        .tree2 {
            transform-origin: 100px 130px;
            animation: tree_wind2 4s linear infinite;
        }
        
        @keyframes tree_wind {
            0% {
                transform: rotate(0deg);
            }
            25% {
                transform: rotate(2deg);
            }
            50% {
                transform: rotate(0deg);
            }
            75% {
                transform: rotate(-2deg);
            }
            100% {
                transform: rotate(0deg);
            }
        }
        
        @keyframes tree_wind2 {
            0% {
                transform: rotate(0deg);
            }
            25% {
                transform: rotate(-3deg);
            }
            40% {
                transform: rotate(0deg);
            }
            65% {
                transform: rotate(2deg);
            }
            100% {
                transform: rotate(0deg);
            }
        }
    </style>

  <g transform="scale(1 1.31065)">
    <g>
      <path d="M3618.94-43.925l-28.66 50.161-10.6 14.191-39.86 32.528-6.94 8.945-19.57 21.898s39.38-15.578-8.34 12.333c-47.71 27.91-56.54 30.789-56.54 30.789l-13.78 5.632-19.34 23.383s22.95-.222 57.55 0c34.59.223 80.44 0 80.44 0h62.43l51.33-8.98s10.3 9.133 17.43-15.856c7.13-24.988.63-10.937 15.49-42.273 14.86-31.336 25.09-61.66 33.05-74.852 7.95-13.191 29.17-57.899 29.17-57.899l6.74-14.648-150 14.648z" fill="url(#b)" transform="matrix(1 0 0 .76298 -2466.12 33.122)"/>
      <path d="M2599.49-15.381l69.42 85.699 29.67 23.688 13.77-5.977 46.04 36.434 8.8-5.805 56.07 21.336 26.42 5.949-262.4-9.254-42.62 6.65-45.69-39.708s-24.53-27.559-32.85-42.352c-8.31-14.793-31.37-47.141-31.37-47.141l-31.46-37.054 138.69-9.219 57.51 16.754z" fill="url(#c)" transform="matrix(1 0 0 .76298 -2416.12 33.122)"/>
      <path d="M2626.49 48.731l14.67 29.161 55.2 48.141 212.06 23.89 98.12 6.012s151.91 9.219 188.08 0c36.17-9.219 251.56 0 251.56 0h44.68s9.25 1.082 29.46-22.019c20.21-23.102 60.02-72.016 60.02-72.016L3617.75 0l1.91-58.573s-154.91 13.183-186.12 14.648c-31.2 1.466-101.01 20.169-220.68 11.79-119.67-8.379-125.78-10.107-180.92-11.79-55.14-1.683-314.06 0-314.06 0s-24.69-5.347-76.72 11.79-71.38 0-71.38 0l56.71 80.866z" fill="url(#d)" transform="matrix(1.21128 0 0 .76298 -3118.05 33.122)"/>
      <path d="M80.774 129.2415664l.022-.21744873 8.835-2.21187322-3.606-8.74525384 4.2 8.59647314.205-.05111953-.379-3.36168106 2.36 3.00231843.149-.02136338-1.145-5.07838158 2.572 4.87466644 2.272-.32426565-.78-4.34592268 2.108 4.15670415 2.009-.28687973 2.436-.58673008-1.412-3.8393053 2.569 3.42500824-.462-2.75511355 1.765 2.60175498-1.672-6.19919625 2.487 5.9893773 6.65-.9918714-1.701-5.05167734 3.858 4.31235165-.866-1.86471824 2.157 1.98832067-1.516-3.7286735 2.787 3.00308142-4.035-8.6391999 5.76 9.6524347 12.992-1.85403655 11.061-.4959357-.235-.00610383-.025-13.90756298.914 12.42280778 1.512-4.95630508 1.574 4.72741168 1.272-6.87977262.737 6.72870298 3.022.40819323 1.33-5.70783842.536 5.90087185 6.12-.0106817.211-5.0738037 1.487 4.90671153.855-3.4814686.892 3.67373906 1.115-8.01660986.036 7.99829837 2.534.20371514 4.866-.2182117 1.665.17243302.436-6.06338617 2.671 6.35942162-.13-2.51706442 1.515 2.68568256.202.0206004.017-4.63432836 1.987 4.4565545-.624-11.6666966 2.094 12.2038331 7.408.7667929 2.872 2.24773318 15.457-.0312821 11.606.13733605 10.132.3883558.069.71948825-3.71-.12665435-.066 1.55494917 7.366.28153888.069.72025123-7.467-.25407166-.047 1.08648067.002.23881212 9.961.38072603.069.72025123-10.023-.34105117.015 1.82733232 8.724.33418437.069.71948824-8.786-.29908738.006.73779973.047.87589873 9.34.3570737.069.72025124-9.369-.3189248.11 2.04172912 23.13.60504155 27.776.33571032 4.622-.46923147 5.234 2.4071956 19.5-9.26255293 26.133 9.12674283 5.885 1.34055235 3.659 2.31869014-3.238-11.76206886 3.994 12.05352645-.23-5.02649908 2.411 4.4458728-.921-6.88206155 2.339 6.50133554 2.304.04959358-.563-5.74140945 1.97 5.71470522 4.443-.71948826-1.207-4.99140208 2.396 4.63051348-.313-3.5066469 1.633 3.4929133-1.339-7.97617202 2.17 7.8243394 2.703-.13352116 3.952-.63556067-1.337-6.1106908 3.547 5.75590603.045-.00762978-.716-2.2820672 1.589 2.14167925.287-.04577868-1.133-4.18417135 2.527 3.95985582.053-.00839276-3.524-11.16618303 4.508 11.00824658 22.014-3.53792898 39.941 6.5478772 59.021-2.4728117 30.684-14.2676886 6.528 16.15834808.46-8.53314595-.006 9.65624956.462 1.14294105.931-3.2815684.906 4.76098273 1.323-6.84314968.175 6.74014765 2.217.47991316 1.302-5.67121547.071 5.90850162 4.538.1350471.437-5.06388498.831 4.93723064.826-3.4578163.459 3.69205054 1.269-7.9830388-.415 7.99219454.438.06180122 6.344-.3296065.588-5.40569913 1.346 5.30498604.302-.01602255.024-1.39014592.489 1.3634417.717-.03738593.186-3.21061143.86 3.15644.388-.01983744.16-10.30783278.736 10.26129112 21.304-1.10784405 13.214-1.49696284 9.093-3.32811004h17.52l11.759 5.7330167 58.354-5.7330167 60.802-2.9023683 6.921 2.9023683 9.059 1.78536852 31.451.27467208 25.172-4.5053851 6.03-3.23273777 42.354 1.22000182 25.809-24.901313-.292 13.5741416 6.166 3.4059338 5.431.80188987-.022-11.71094932.871 11.8368407.213.0312821 1.343-4.4016201 1.574 4.72817467 1.272-6.8805356.737 6.72946596 3.022.40743025 1.33-5.70783842.535 5.90163484 6.121-.01144467.211-5.0738037 1.487 4.90671152.855-3.48146862.892 3.67373907 1.115-8.01660985.036 7.99829838 8.66.6965989.372-.07400886.469-6.5272768 2.493 5.93596885.154-.03051912-.106-2.0638555 1.057 1.87387398.664-.1319952.013-3.66992417 1.501 3.3677849.423-.08469057-.562-10.49247346 1.76 10.25366134 13.801-2.7535876 13.874-3.47917968 27.434-1.50993347 15.18 7.26660248 15.76-.99110842 11.43 6.1938554 21.86-4.23529087 23.33-6.71954724 3.93-.52187695 4.79-1.78307957-1.09-7.10027327 5.03 5.67884525-2.61-9.55629944 5.17 8.62775523 4.25-.55697395-1.8-8.02805452 4.28 7.421487 7.98-2.53919078-2.67-6.29380552 4.75 5.63154062.19-.0595123-.96-4.53743015 2.98 3.8950027.26-.08163866-3.29-10.28189153 4.69 9.83707537 11.87-3.77597812-2.65-6.75388126 5.79 5.7528541.69-.21897468-.73-1.3771753 1.42 1.15820062 1.48-.46999445-1.81-3.86524656 3.49 3.33192493.8-.2563606-6.98-13.10033227 8.57 12.6997688 11.22 4.42069454 13.68-10.08580618 7.55-6.40825222 5.91.00457787 11.33-8.3057785 38.95 38.42204612 1.04 16.7443152-6.75 11.51104908-1.92 5.19053933-16.52 5.89476803-5.18-.04272677-2.74 2.0699593.06 9.27247164-11.96-10.98077938-1.51.03585997.66 48.30566313-1080.691 8.22566582-6.499-64.35185345c-.641.18158876-1.042.3013763-1.042.3013763l-10.041 1.2001644-3.666 1.8906595-8.132 2.6833936-3.563 8.5522204-1.363-9.1999887-3.25-7.05220566-.671-4.57252716-5.174-6.23353025 3.394-5.97488072 7.423-3.9468852 5.299-2.12794563zm134.798 5.92070928l8.601.2250785-.13-2.04783294-8.577-.1426769.106 1.96543134zm-7.455-.19532237l6.665.17472197-.124-1.95856452-1.59-.02670423-5.678-.0068668.727 1.8174136zm-1.482-.03891187l.68.0175485-.736-1.79757617-2.221-.0030519 2.277 1.78307957zm17.36-2.3514982l-8.567-.10147607-.052-.9636412-.006-.69659893 8.072.13428413.492.01678552.023 1.00789394.038.60275262zm-11.579-.13733603l-5.305.01144467-.319-.80036393-.317-.89268426 5.917.00762978 2.154.03585997.021.95219654.045.71185848-2.196-.02594125zm-11.116-1.68847032l2.18 1.7067818 2.814-.00534086-.211-.5165361-.435-1.179564-4.348-.00534084zm22.046-.56460372l-7.982-.09537225-.015-1.837251 8.527.14267687.041 1.81130978-.571-.0213634zm-11.606-.13809902l-5.512.01144467-.654-1.8448808 8.033.00991872.881.01525956.042 1.84106592-2.79-.03280806zm-13.693-1.84335484l2.385 1.86624418 4.96-.0099187-.681-1.84793273-6.664-.00839275zm25.812-.56765564l-8.516-.1007131-.003-.3433401.045-1.06893217 6.754.11292073 1.778.06027527-.062 1.13912615.004.2006632zm-28.587-1.6053057l1.927 1.5084075 7.259-.01525956-.048-.12894328-.393-1.35276-8.745-.01144467zm17.682 1.47559944l-7.625.01602254-.069-.19684832-.39-1.28180304 6.219.00762978 3.437.05798633-.061 1.1055551.007.30976908-1.518-.01831148zm9.089-2.03409934l-6.627-.07858674.07-1.6373508 2.994.04959358 5.564.18921855-.085 1.5503713-1.916-.0732459zm-11.607-.13809902l-5.777.01220765-.525-1.72890816 3.296.00457787 7.226.12055053-.09 1.64116568-4.13-.04959356zM192.17 123.602396l2.255 1.76629407 9.389-.01983743-.504-1.73119708-11.14-.01525956z"/>
      <path class="tree" d="M153.862 68.39559685l1.371-3.37617765.681-1.29095877 3.161-1.83038422-2.837 3.01147417-.242 2.43313684-1.82 3.0419933-.51 1.84793272-1.06 1.84716973-3.322 1.55571215-5.531 2.96416953 4.904 1.06893217 5.14.9644042 3.734.60580453 4.199-.7599261 2.149-.8804766 1.544-1.77087194 2.813-1.65566227.435.62335303-2.264 1.62209122-1.17 1.4878071-2.542 1.54579343-4.949.72330316-3.604-.44329022 1.194 1.3977757 2.416 2.34005352 2.503 1.0330722 3.262-.23728615-2.905 1.144467-4.056-.89649914-3.815-3.00079247-1.682-1.94788284-6.537-.67370958-6.678-.58749306-9.777 1.6854184-4.262 4.54429697 1.451 3.8599057 3.247 7.13994812 4.071 9.7279695 1.024 5.63382955-1.092 5.69334184 2.637 2.31563824 7.355 1.5053556-10.384 1.1231036-17.038.9468557 4.774-2.5246942 4.986-5.00895057.492-3.6271974.588-4.86474774-3.01-8.93218344-3.198-5.1226343-2.247-3.3258211-1.53-1.6823665-2.781-.92472933-4.502-1.33444853-5.048.46923147-5.216.95677443-2.52 1.2100831-2.394 2.43618876-.22 2.01731382-3.109 2.41177346-2.53 1.43821353-1.077.2151598-1.039-.22126362 1.694-.77060778 3.06-2.46213.853-2.14930903-3.543 1.20932013-1.871.35859966-3.693.08087567-4.608.70346572-2.384 1.01704967-2.07 1.838014-1.028-.6073305 2.034-2.0493589 2.136-1.31613704-3.009-.82401624-3.498-.0801127-3.548.798075-1.362-.54629225 3.888-.99034546 2.607-.67905042 3.79.7210142 6.831.4097192 6.891-1.34818213 4.623-2.51706443 3.95-2.3095344 2.118-.86292812-1.485-1.0857177-4.543-2.4415296-3.036-.0968982-3.294.20600406-2.884-.0587493-2.368.82096433-2.008.34410308-1.907.38454092-.788-.72559208 2.347-.44481617 1.465-.50585442-1.233-.45320893-2.501-.81638646-1.361-.79502308-1.431-.60885644.973-.58138924 2.006.74161462.811.13275817 2.66 1.2344984 2.433.59054497 4.835-.34944393 3.756-.9956863-2.908-1.74187876-1.114-1.61675038-1.291-1.01704968-2.054.11597266-3.235.62945685-1.454.13428413-1.045-.61190836 1.223-.10300203 1.604-.43184555 1.102-.45168297 1.709-.48449103-1.758-1.23602436-3.228-.2639904-1.839-.02288933-3.664.49135783-2.584.28153888-1.756-.26093847 1.641-.4234528 2.184-.51043227 2.06-.82630518 4.916.04959357 2.87.5997007 3.347 1.491622 4.198 2.63456302 2.838 3.20527058 3.179 2.07911505 2.277.87513577 3.925.86826896 2.163.034334 4.844.8049418 3.439-.09232034 2.867 1.10021428-.257-.90412893-2.259-1.70830775-4.186-2.393462-2.478-1.84640675-2.386-3.52266942-1.582-2.4384777.108-2.6498226-.8-1.6953371-.688-1.03993902-1.467-.6378496-1.676-.5791003-6.027 1.31155918-.309-.75840014 3.232-.81028263 1.524-.60504156-1.167-.62487897-4.116-.64929428-3.139.68896914-1.051-.50966932 3.247-.88352852 1.784.05111953 4.222.25864953 2.336.73703675 2.483 1.3901459 2.591 1.1208147.195-1.51756325.766-1.72585623.612-2.0913227-.313-2.1088712-1.623-2.64066685-1.862-1.80825786 2.192.72711802 1.613.90107702 1.786 1.3321596.489 3.24036755-.844 2.43161088-.813 4.72970062.662 4.32684824 1.118 2.8054701.625.72788102.655-1.3107962 2.126-1.57554958.877-1.4977258.092-2.44305557.019-2.11650096-1.85-2.18059112 2.321.92701827 1.496 1.07579897.399 1.421428-.42 2.11116014-1.601 3.2808054-1.477 2.58649543-.548 1.86319227 3.024 1.49772582 3.437 1.88531864 1.392.37843708 1.448 2.08292994.963-2.54453163 1.573-3.02902266 1.216-1.3046924.094-1.63200993-.299-1.46186585-.926-1.11547383-1.208-.98653057-.454-.7805265 1.843.18921855 1.578.46694254 2.146 2.4308479 1.901-1.39930164 2.193-1.68007756 2.226-1.47559945.913-1.3939608.194-1.11547384-1.208-1.34513022-.958-.59054496-1.553-.866743-3.216-.85835026-3.082-.8804766-1.695-.56765564-1.265-.78510436.102-1.85022165.927 1.63200994 2.319.78434138 3.854.47228338 2.856.87513577 4.517 2.19127282.756 1.7929983.986-1.19558653 1.678-2.20882132.161-3.57302597-.894-1.56486787-1.307-1.81665062-1.262-1.72433027.647-3.37922956.503 3.26859775.693.72025123 1.141 1.0544356 1.203 1.82199146 2.193-1.1337853 1.544-1.30850727 1.165-2.7429059.126 3.2281599-2.398 2.24162938-.919 1.46873266-.022 4.08803612-1.965 1.7998651-.885 1.5290079-1.593 1.90668204-1.748 1.4290578-2.893 1.99595044-4.832 2.57733968-1.299 4.3489746 6.05-1.0437539 4.316-.3853039 3.973-1.09029555 3.031-.91099575 3.824-1.95780154 2.189-1.85403653 1.048-1.4359246-.896-2.0569887-1.302-1.1231036-1.166-.98576758-.077-1.91660075 1.036-.49059485.101 1.77087194 1.102.63708663.946.73703675.594.95830036 1.081 1.75790132 1.491-2.31869015z"/>
      <g style="transform: scale(1.8) translate(480px, -50px);">
        <path class="tree2" d="M153.862 68.39559685l1.371-3.37617765.681-1.29095877 3.161-1.83038422-2.837 3.01147417-.242 2.43313684-1.82 3.0419933-.51 1.84793272-1.06 1.84716973-3.322 1.55571215-5.531 2.96416953 4.904 1.06893217 5.14.9644042 3.734.60580453 4.199-.7599261 2.149-.8804766 1.544-1.77087194 2.813-1.65566227.435.62335303-2.264 1.62209122-1.17 1.4878071-2.542 1.54579343-4.949.72330316-3.604-.44329022 1.194 1.3977757 2.416 2.34005352 2.503 1.0330722 3.262-.23728615-2.905 1.144467-4.056-.89649914-3.815-3.00079247-1.682-1.94788284-6.537-.67370958-6.678-.58749306-9.777 1.6854184-4.262 4.54429697 1.451 3.8599057 3.247 7.13994812 4.071 9.7279695 1.024 5.63382955-1.092 5.69334184 2.637 2.31563824 7.355 1.5053556-10.384 1.1231036-17.038.9468557 4.774-2.5246942 4.986-5.00895057.492-3.6271974.588-4.86474774-3.01-8.93218344-3.198-5.1226343-2.247-3.3258211-1.53-1.6823665-2.781-.92472933-4.502-1.33444853-5.048.46923147-5.216.95677443-2.52 1.2100831-2.394 2.43618876-.22 2.01731382-3.109 2.41177346-2.53 1.43821353-1.077.2151598-1.039-.22126362 1.694-.77060778 3.06-2.46213.853-2.14930903-3.543 1.20932013-1.871.35859966-3.693.08087567-4.608.70346572-2.384 1.01704967-2.07 1.838014-1.028-.6073305 2.034-2.0493589 2.136-1.31613704-3.009-.82401624-3.498-.0801127-3.548.798075-1.362-.54629225 3.888-.99034546 2.607-.67905042 3.79.7210142 6.831.4097192 6.891-1.34818213 4.623-2.51706443 3.95-2.3095344 2.118-.86292812-1.485-1.0857177-4.543-2.4415296-3.036-.0968982-3.294.20600406-2.884-.0587493-2.368.82096433-2.008.34410308-1.907.38454092-.788-.72559208 2.347-.44481617 1.465-.50585442-1.233-.45320893-2.501-.81638646-1.361-.79502308-1.431-.60885644.973-.58138924 2.006.74161462.811.13275817 2.66 1.2344984 2.433.59054497 4.835-.34944393 3.756-.9956863-2.908-1.74187876-1.114-1.61675038-1.291-1.01704968-2.054.11597266-3.235.62945685-1.454.13428413-1.045-.61190836 1.223-.10300203 1.604-.43184555 1.102-.45168297 1.709-.48449103-1.758-1.23602436-3.228-.2639904-1.839-.02288933-3.664.49135783-2.584.28153888-1.756-.26093847 1.641-.4234528 2.184-.51043227 2.06-.82630518 4.916.04959357 2.87.5997007 3.347 1.491622 4.198 2.63456302 2.838 3.20527058 3.179 2.07911505 2.277.87513577 3.925.86826896 2.163.034334 4.844.8049418 3.439-.09232034 2.867 1.10021428-.257-.90412893-2.259-1.70830775-4.186-2.393462-2.478-1.84640675-2.386-3.52266942-1.582-2.4384777.108-2.6498226-.8-1.6953371-.688-1.03993902-1.467-.6378496-1.676-.5791003-6.027 1.31155918-.309-.75840014 3.232-.81028263 1.524-.60504156-1.167-.62487897-4.116-.64929428-3.139.68896914-1.051-.50966932 3.247-.88352852 1.784.05111953 4.222.25864953 2.336.73703675 2.483 1.3901459 2.591 1.1208147.195-1.51756325.766-1.72585623.612-2.0913227-.313-2.1088712-1.623-2.64066685-1.862-1.80825786 2.192.72711802 1.613.90107702 1.786 1.3321596.489 3.24036755-.844 2.43161088-.813 4.72970062.662 4.32684824 1.118 2.8054701.625.72788102.655-1.3107962 2.126-1.57554958.877-1.4977258.092-2.44305557.019-2.11650096-1.85-2.18059112 2.321.92701827 1.496 1.07579897.399 1.421428-.42 2.11116014-1.601 3.2808054-1.477 2.58649543-.548 1.86319227 3.024 1.49772582 3.437 1.88531864 1.392.37843708 1.448 2.08292994.963-2.54453163 1.573-3.02902266 1.216-1.3046924.094-1.63200993-.299-1.46186585-.926-1.11547383-1.208-.98653057-.454-.7805265 1.843.18921855 1.578.46694254 2.146 2.4308479 1.901-1.39930164 2.193-1.68007756 2.226-1.47559945.913-1.3939608.194-1.11547384-1.208-1.34513022-.958-.59054496-1.553-.866743-3.216-.85835026-3.082-.8804766-1.695-.56765564-1.265-.78510436.102-1.85022165.927 1.63200994 2.319.78434138 3.854.47228338 2.856.87513577 4.517 2.19127282.756 1.7929983.986-1.19558653 1.678-2.20882132.161-3.57302597-.894-1.56486787-1.307-1.81665062-1.262-1.72433027.647-3.37922956.503 3.26859775.693.72025123 1.141 1.0544356 1.203 1.82199146 2.193-1.1337853 1.544-1.30850727 1.165-2.7429059.126 3.2281599-2.398 2.24162938-.919 1.46873266-.022 4.08803612-1.965 1.7998651-.885 1.5290079-1.593 1.90668204-1.748 1.4290578-2.893 1.99595044-4.832 2.57733968-1.299 4.3489746 6.05-1.0437539 4.316-.3853039 3.973-1.09029555 3.031-.91099575 3.824-1.95780154 2.189-1.85403653 1.048-1.4359246-.896-2.0569887-1.302-1.1231036-1.166-.98576758-.077-1.91660075 1.036-.49059485.101 1.77087194 1.102.63708663.946.73703675.594.95830036 1.081 1.75790132 1.491-2.31869015z"/>
      </g>
    </g>
  </g>
  <defs>
    <linearGradient id="b" x2="1" gradientUnits="userSpaceOnUse" gradientTransform="rotate(-68.206 1889.086 -2619.35) scale(94.244)">
      <stop offset="0" stop-color="#fff" stop-opacity=".1"/>
      <stop offset="1" stop-color="#fff" stop-opacity="0"/>
    </linearGradient>
    <linearGradient id="c" x2="1" gradientUnits="userSpaceOnUse" gradientTransform="scale(128.177) rotate(64.286 9.715 15.637)">
      <stop offset="0" stop-color="#fff" stop-opacity="0"/>
      <stop offset="1" stop-color="#fff" stop-opacity=".1"/>
    </linearGradient>
    <linearGradient id="d" x2="1" gradientUnits="userSpaceOnUse" gradientTransform="matrix(-2.9583 -119.736 98.8513 -3.5833 3142.54 119.736)">
      <stop offset="0" stop-color="#fff" stop-opacity=".1"/>
      <stop offset="1" stop-color="#fff" stop-opacity="0"/>
    </linearGradient>
  </defs>
</svg>
