<svg viewBox="0 0 1280 700" xmlns="http://www.w3.org/2000/svg" xmlns:xlink="http://www.w3.org/1999/xlink" fill-rule="evenodd"
    clip-rule="evenodd" stroke-linejoin="round" stroke-miterlimit="1.41421">

    <style>
        .spider-dangle {
        -webkit-transform-origin: 1020px 300px;
                transform-origin: 1020px 300px;
        -webkit-animation: dangle 2s linear infinite;
                animation: dangle 2s linear infinite;
        }

        @-webkit-keyframes dangle {
        0% {
            -webkit-transform: rotate(0deg);
                    transform: rotate(0deg);
        }
        25% {
            -webkit-transform: rotate(10deg);
                    transform: rotate(10deg);
        }
        50% {
            -webkit-transform: rotate(0deg);
                    transform: rotate(0deg);
        }
        75% {
            -webkit-transform: rotate(-10deg);
                    transform: rotate(-10deg);
        }
        100% {
            -webkit-transform: rotate(0deg);
                    transform: rotate(0deg);
        }
        }

        @keyframes dangle {
        0% {
            -webkit-transform: rotate(0deg);
                    transform: rotate(0deg);
        }
        25% {
            -webkit-transform: rotate(10deg);
                    transform: rotate(10deg);
        }
        50% {
            -webkit-transform: rotate(0deg);
                    transform: rotate(0deg);
        }
        75% {
            -webkit-transform: rotate(-10deg);
                    transform: rotate(-10deg);
        }
        100% {
            -webkit-transform: rotate(0deg);
                    transform: rotate(0deg);
        }
        }
        .gate-right {
        -webkit-transform-origin: 580px 0px;
                transform-origin: 580px 0px;
        -webkit-animation: gate_hinge_right 6s linear infinite;
                animation: gate_hinge_right 6s linear infinite;
        }

        @-webkit-keyframes gate_hinge_right {
        0% {
            -webkit-transform: rotateY(0deg);
                    transform: rotateY(0deg);
        }
        25% {
            -webkit-transform: rotateY(35deg);
                    transform: rotateY(35deg);
        }
        50% {
            -webkit-transform: rotateY(0deg);
                    transform: rotateY(0deg);
        }
        75% {
            -webkit-transform: rotateY(-35deg);
                    transform: rotateY(-35deg);
        }
        100% {
            -webkit-transform: rotateY(0deg);
                    transform: rotateY(0deg);
        }
        }

        @keyframes gate_hinge_right {
        0% {
            -webkit-transform: rotateY(0deg);
                    transform: rotateY(0deg);
        }
        25% {
            -webkit-transform: rotateY(35deg);
                    transform: rotateY(35deg);
        }
        50% {
            -webkit-transform: rotateY(0deg);
                    transform: rotateY(0deg);
        }
        75% {
            -webkit-transform: rotateY(-35deg);
                    transform: rotateY(-35deg);
        }
        100% {
            -webkit-transform: rotateY(0deg);
                    transform: rotateY(0deg);
        }
        }
        .gate-left {
        -webkit-transform-origin: 500px 0px;
                transform-origin: 500px 0px;
        -webkit-animation: gate_hinge_left 4s linear infinite;
                animation: gate_hinge_left 4s linear infinite;
        }

        @-webkit-keyframes gate_hinge_left {
        0% {
            -webkit-transform: rotateY(0deg);
                    transform: rotateY(0deg);
        }
        25% {
            -webkit-transform: rotateY(25deg);
                    transform: rotateY(25deg);
        }
        50% {
            -webkit-transform: rotateY(0deg);
                    transform: rotateY(0deg);
        }
        75% {
            -webkit-transform: rotateY(-25deg);
                    transform: rotateY(-25deg);
        }
        100% {
            -webkit-transform: rotateY(0deg);
                    transform: rotateY(0deg);
        }
        }

        @keyframes gate_hinge_left {
        0% {
            -webkit-transform: rotateY(0deg);
                    transform: rotateY(0deg);
        }
        25% {
            -webkit-transform: rotateY(25deg);
                    transform: rotateY(25deg);
        }
        50% {
            -webkit-transform: rotateY(0deg);
                    transform: rotateY(0deg);
        }
        75% {
            -webkit-transform: rotateY(-25deg);
                    transform: rotateY(-25deg);
        }
        100% {
            -webkit-transform: rotateY(0deg);
                    transform: rotateY(0deg);
        }
        }
        .tree {
        -webkit-transform-origin: 1100px 400px;
                transform-origin: 1100px 400px;
        -webkit-animation: tree_wind 4s linear infinite;
                animation: tree_wind 4s linear infinite;
        }

        .tree2 {
        -webkit-transform-origin: 700px 500px;
                transform-origin: 700px 500px;
        -webkit-animation: tree_wind2 4s linear infinite;
                animation: tree_wind2 4s linear infinite;
        }

        @-webkit-keyframes tree_wind {
        0% {
            -webkit-transform: rotate(0deg);
                    transform: rotate(0deg);
        }
        25% {
            -webkit-transform: rotate(2deg);
                    transform: rotate(2deg);
        }
        50% {
            -webkit-transform: rotate(0deg);
                    transform: rotate(0deg);
        }
        75% {
            -webkit-transform: rotate(-2deg);
                    transform: rotate(-2deg);
        }
        100% {
            -webkit-transform: rotate(0deg);
                    transform: rotate(0deg);
        }
        }

        @keyframes tree_wind {
        0% {
            -webkit-transform: rotate(0deg);
                    transform: rotate(0deg);
        }
        25% {
            -webkit-transform: rotate(2deg);
                    transform: rotate(2deg);
        }
        50% {
            -webkit-transform: rotate(0deg);
                    transform: rotate(0deg);
        }
        75% {
            -webkit-transform: rotate(-2deg);
                    transform: rotate(-2deg);
        }
        100% {
            -webkit-transform: rotate(0deg);
                    transform: rotate(0deg);
        }
        }
        @-webkit-keyframes tree_wind2 {
        0% {
            -webkit-transform: rotate(0deg);
                    transform: rotate(0deg);
        }
        25% {
            -webkit-transform: rotate(-3deg);
                    transform: rotate(-3deg);
        }
        40% {
            -webkit-transform: rotate(0deg);
                    transform: rotate(0deg);
        }
        65% {
            -webkit-transform: rotate(2deg);
                    transform: rotate(2deg);
        }
        100% {
            -webkit-transform: rotate(0deg);
                    transform: rotate(0deg);
        }
        }
        @keyframes tree_wind2 {
        0% {
            -webkit-transform: rotate(0deg);
                    transform: rotate(0deg);
        }
        25% {
            -webkit-transform: rotate(-3deg);
                    transform: rotate(-3deg);
        }
        40% {
            -webkit-transform: rotate(0deg);
                    transform: rotate(0deg);
        }
        65% {
            -webkit-transform: rotate(2deg);
                    transform: rotate(2deg);
        }
        100% {
            -webkit-transform: rotate(0deg);
                    transform: rotate(0deg);
        }
        }

    </style>

    <path d="M137.337,72.444L137.337,207.989L181.633,203.629L167.681,130.156L137.337,72.444Z" style="transform: translate(1000px, 650px);"/>

    <g opacity=".57589">
        <use xlink:href="#a" x="73.523" y="394.751" width="1117.59" height="269.941" />
        <use xlink:href="#b" x="66.382" y="384.751" width="1124.73" height="269.941" transform="rotate(1.255)" />
    </g>

    <circle cx="640" cy="272.8" r="636.379" fill="#fff" fill-opacity=".1" />
    <circle cx="640" cy="272.8" r="612.172" fill="url(#c)" />

    <path d="M1107.57 629.823c-192.895 211.186-520.956 226.036-732.142 33.142C164.242 470.07 149.392 142.009 342.286-69.177c192.895-211.185 520.956-226.036 732.142-33.142 211.186 192.895 226.036 520.956 33.142 732.142z" fill="url(#d)" />

    <circle class="moon" style="transform: translate(20px, 110px);" cx="292.56" cy="234.669" r="127.688" fill="#927962" />

    <use xlink:href="#e" x="173.63" y="113.76" width="243.452" height="236.234" transform="scale(.998 .997)" />

    <g fill="#fff">
        <path d="M53.875 311.58l77.584 17.761 119.587-.683 119.235-8.29-125.335-22.833-50.479-3.509-74.436-6.75-93.257-3.126 27.101 27.43zM107.309 226.495l132.492 2.143 204.223-.082 203.621-1.001-214.039-2.755-86.204-.423-127.117-.815-159.258-.377 46.282 3.31z" fill-opacity=".1" />
        <path d="M747.203 261.176l-178.811-7.811-269.352 2.684-281.071 1.262 60.178 10.504 345.027 1.08 162.457-1.387 231.311-3.545-69.739-2.787z" fill-opacity=".05" />
        <path d="M128.731 247.794l74.289.844 114.508-.032 114.171-.395-120.012-1.085-48.334-.167-71.275-.321-89.297-.148 25.95 1.304z" fill-opacity=".1" />
    </g>

    <path d="M842.571 519.328l25.918-17.973 17.446-5.734 34.496-2.488 19.09 11.976 16.828 15.223 17.359-6.648 27.485-6.981 29.339-11.074 7.899-1.375 64.621-26.942 14.29 7.382 17.202-16.622 9.499-10.561 7.423.008 14.249-13.689 36.276 46.897 26.295 4.615 20.093-26.363 7.088 34.529-.969 46.397-24.988 16.713-18.852 30.215-52.591 68.021-19.386 18.25-20.354-21.277 19.062 7.744 9.866-2.951 22.784-55.862-.33-.64 4.134-6.445 8.045-31.711-236.263-2.523-.237.161-.111-.165-26.562-.283-403.64 16.557-8.002-20.118-352.847 6.799-1.934-4.535-106.077 1.316-13.479-8.266-13.216-16.843 24.603-21.185 13.594 19.809 31.449-18.123 2.028 20.929 14.961 4.277 27.201-4.843 10.91 2.488 15.296-19.683-2.158-11.574-9.071-8.734-11.387-10.889-11.16-4.186-1.43-8.061-.599-27.623-2.668-6.371s-3.498-3.556-2.831-7.613c.147-.891.296-1.764.44-2.584l-4.29-5.575-2.753-7.887-3.162-5.944-4.325-4.885-3.856-5.781.53-2.485 3.328.119 3.967 4.068 6.231 9.253 5.522 6.931.174.539.306-4.838-1.749-14.629-6.492-9.467-3.464-10.059-5.85-10.141s-5.451-6.476-8.142-9.532c-1.98-2.248-4.748-5.063-6.073-6.394l-.007-.008c-.471-.473-.758-.757-.758-.757l.758.757.007.008-2.438 7.538-.198 7.143-.27 5.049-2.328-8.067-1.469-6.347-3.25-7.09-2.088.958-.183 8.48-4.591-3.078-.331-8.141-4.405-13.852-3.563-3.098-3.47-3.042 15.222-1.595 7.612.14 9.495-.194 7.553-.89 4.627-.656-1.925-30.788 3.443-.992.892-20.477 1.091-5.805.347-5.982.198-7.927-.043-10.306.614-5.541.06-5.041 1.421-8.2-5.764-6.052 3.774-1.725 1.369-1.386 2.93-31.811-2.864-.616 2.901-25.673 3.244-33.616.344-1.991-.051-2.452 1.982-18.839.808 22.309.768 20.525 1.821 16.603 1.479 11.74.007 7.367-.106 3.788-2.577.342.543 4.688 1.434 7.741.926 4.955 7.528 7.657 7.202-4.264 1.523-5.082 1.808-9.251-.056-10.606-4.247 1.335 3.208-28.567 1.4-14.53-.005-1.519.144-1.694 1.501-13.697 2.11 13.454 1.988 17.083 3.083 11.717 2.416 8.266-.426 2.538.804 2.74.06 2.725-3.177.504.247 1.104 2.471 11.277 1.209 14.991-.452 4.862 2.114 2.034-.559 8.193-3.844 5.394 2.112 10.599-.134 18.656-.948 12.737 1.307 8.543 1.427 4.873 8.843-.3 4.006.549 2.751-13.112 3.069-3.875 1.824-13.474 4.53-3.03 3.147 1.801 3.407 4.026 6.907-1.315 2.189-3.29 2.505-14.873-1.448-10.513 1.102-1.779-4.527-.26-.214-2.685 1.686-6.108-1.778.886 2.097-8.332 2.551-11.781.89-14.555.924-15.82 3.289 13.342-1.342 2.297 1.853.851 3.253 14.17 6.957 27.82-4.548.473-.113.001 1.003 3.48-.826 2.586 2.025 13.136.104 7.089-.308 4.742.825 11.795-1.67 17.992 1.277 7.83 12.999-.3 2.204 2.404-2.422.686-3.396 2.315-3.141 1.4-3.278 9.273 1.63 8.054-1.218 6.809.762 9.881 9.95 1.524 7.886.43 10.019.189 5.296-.079 9.763-.059 3.502 2.002-.023 2.366-6.931 1.868-7.772 4.145-4.39 10.208 1.537 6.281 2.707 8.398 2.048 3.215 1.71-2.463 2.314-.559 3.372-3.453.3-1.016 1.281-.314-.701 1.965-1.509 2.715-3.03 1.673.238 2.133-1.784 2.758 15.181 23.833 5.934 5.321 11.516 10.397 12.411 6.972 6.191 1.015 9.447-1.412 7.573 1.573 11.008 12.351 12.637 3.832 4.388 12.192 1.493 4.882 2.52 6.261 3.881 1.358 40.14 7.981 28.035 4.935 18.781-4.239 3.903-16.515 1.251-17.746 4.487 19.872 9.367 15.703 5.695 8.797 10.367 7.222 4.563-11.209 10.565 25.053 7.289 7.721 10.318 4.981 13.448 11.704 1.223-11.884 10.641 13.772 10.84 4.69 8.991 2.652.462-.42.388.671 14.089 4.157 12.129-3.855 13.167 6.199 56.202-19.033.496 4.675 10.99-3.831 31.653-7.425 7.582-5.329 50.045 1.891 5.481-5.292 2.46-9.61 2.689-11.709 1.171 8.738 2.082-1.013 4.263-4.303 5.368-6.042 2.387-8.273 1.501 7.036 8.264-10.45-.197 11.997 1.909 9.891 2.862-2.713 5.572 9.938 1.382-7.909 14.185 16.856.361-3.04 7.155 7.17 9.22 5.843 3.961-2.434 3.364-9.409.388 6.747 1.913-2.644 1.975 2.418zm-303.545 35.648l-4.529.087.672 3.425 3.857-3.512z" />
    <path d="M59.77 549.897l41.403 83.853 17.358 22.303 4.828 23.329-10.433 30.375 20.879 27.68-32.086 83.339 1045.03.602-14.922-11.293 19.906-31.629 8.942-96.289-38.121-30.289 49.969-51.68 15.14-51.949-1127.89 1.648z" />
    <path d="M536.626 533.488l17.229 22.589 27.707 11.919 84.542 17.514 135.618 32.724 338.491 41.73 9.238-2.824 38.161-62.552-369.921-4.436-98.003-12.198-51.094-5.8-91.552-22.02-6.385-5.956-34.031-10.69" fill="#4f453d" />
    <path d="M1189.28 592.935l-12.382 11.964-7.144 13.022-22.321 29.266-14.805 12.53 2.237 1.532 8.435-2.501 5.065-1.192 4.569-8.656 19.447-29.352 8.245-12.472 9.784-11.522-1.13-2.619z" fill="#685f56" />
    <path d="M123.221 233.276l-1.731 3.545-.49 4.97-.33 4.995.1 5.549 3.821.135.216-8.479-.184-6.119-.419-4.449-.983-.147zM125.221 233.222l.019 3.771.282 3.504.053 9.56.369 2.684 4.382-.419-.134-7.621-1.123-5.195-.967-4.435-2.881-1.849z" fill="#d6c252" />
    <path d="M120.675 244.133l2.473-.141 1.317.286 1.954.125 4.214.07-.197-.637-3.287-.235s-.818.057-1.128.07c-.309.014-1.019-.043-1.019-.043l-1.101-.153-1.541-.13-1.784.286.099.502z" />
    <path d="M122.337 270.445l-1.589 3.333-.234 4.553-.068 4.566.405 5.044 3.94-.113-.238-7.729-.523-5.557-.674-4.023-1.019-.074zM124.392 270.273l.225 3.431.481 3.171.575 8.696.526 2.421 4.488-.652-.553-6.927-1.439-4.658-1.237-3.976-3.066-1.506z" fill="#d6c252" />
    <path d="M120.306 280.482l2.539-.28 1.371.179 2.018-.006 4.341-.197-.237-.567-3.396-.011s-.839.102-1.157.133c-.318.032-1.052.023-1.052.023l-1.142-.071-1.592-.023-1.822.37.129.45z" />
    <path d="M205.96 235.808l.952 1.725.27 2.416.182 2.429-.055 2.699-2.102.066-.119-4.124.101-2.975.231-2.164.54-.072zM204.86 235.782l-.01 1.834-.156 1.704-.029 4.649-.203 1.306-2.41-.204.074-3.706.617-2.527.533-2.157 1.584-.899z" fill="#d6c252" />
    <path d="M207.361 241.088l-1.36-.068-.725.139-1.075.061-2.318.034.108-.31 1.809-.114s.45.027.62.034c.17.007.561-.021.561-.021l.605-.074.848-.064.981.139-.054.244z"/>

    <g>
        <path d="M205.96 258.051l.952 1.724.27 2.417.182 2.429-.055 2.698-2.102.066-.119-4.123.101-2.976.231-2.164.54-.071zM204.86 258.025l-.01 1.833-.156 1.704-.029 4.649-.203 1.306-2.41-.204.074-3.706.617-2.526.533-2.157 1.584-.899z" fill="#d6c252" />
        <path d="M207.361 263.331l-1.36-.069-.725.139-1.075.061-2.318.034.108-.31 1.809-.114s.45.028.62.034c.17.007.561-.021.561-.021l.605-.074.848-.063.981.139-.054.244z" />
    </g>

    <g>
        <path d="M147.732 504.195l-.113-10.032-.938.121.057 9.973-.312.019-1.425.033-.084-7.474-.938.122.042 7.375-2.038.048-.042-3.713-.938.121.058 10.144.467 11.598 1.012 17.283.854-.17-.741-13.703 2.238-.63.625 10.672.854-.17-.582-10.755 1.748-.492.166-.057.516 8.801.854-.17-.483-8.934 2.38-.815.641 10.946.854-.17-.6-11.083 1.519-.52.664-.249.655 11.172.854-.169-.614-11.338 7.134-2.673-.139-.72-7.039 2.583-.306-5.67-.054-1.589 6.972-.728-.088-.75-6.912.67-.291-8.574 7.055-.738-.087-.749-6.979.676-.105-9.377-.938.121.053 9.352-1.143.111-.965.06-.099-8.794-.938.121.05 8.735-2.391.149zm-3.229 14.504l.338 5.768-2.233.65-.178-3.291-.246-7.224 2.153-.03.166 4.127zm2.703-2.673l.445 7.612-.253.084-1.656.482-.336-6.209-.117-3.436 1.45-.02.405-.03.062 1.517zm3.392 1.027l.322 5.502-2.378.788-.434-8.021-.03-.881 2.407-.176.113 2.788zm3.091-.85l.31 5.296-1.028.377-1.151.381-.32-5.908-.073-2.153 1.244-.091.93-.097.088 2.195zm-9.653-9.102l.267 6.621-2.147.05-.101-2.992-.063-5.57 2.034-.028.01 1.919zm2.731-1.972l.342 8.51-.448.028-1.401.033-.23-6.751-.02-1.78 1.494-.021.263-.019zm3.364.326l.321 7.976-2.403.15-.29-8.525 2.368-.173.004.572zm3.092-.823l.345 8.561-1.258.122-.911.057-.274-8.069-.006-.492 1.317-.097.787-.082zM225.524 318.86l.104-6.364.87.077-.053 6.326.289.012 1.321.021.077-4.74.87.076-.039 4.679 1.888.03.039-2.355.869.077-.053 6.434-.433 7.356-.938 10.963-.792-.108.688-8.692-2.074-.4-.579 6.77-.792-.108.539-6.822-1.62-.312-.154-.036-.478 5.582-.792-.107.449-5.667-2.206-.517-.594 6.943-.792-.108.556-7.03-1.407-.33-.616-.157-.606 7.086-.792-.108.569-7.191-6.611-1.696.128-.456 6.523 1.638.285-3.596.05-1.008-6.461-.462.081-.476 6.405.425.27-5.438-6.538-.468.081-.475 6.467.429.098-5.948.869.077-.049 5.932 1.059.07.894.038.092-5.578.869.076-.046 5.541 2.216.095zm2.992 9.199l-.313 3.659 2.069.412.165-2.087.228-4.582-1.995-.019-.154 2.617zm-2.504-1.695l-.414 4.828.235.053 1.535.306.311-3.938.109-2.18-1.345-.012-.375-.019-.056.962zm-3.144.651l-.299 3.491 2.204.499.402-5.088.028-.558-2.231-.112-.104 1.768zm-2.865-.538l-.288 3.358.954.24 1.066.241.297-3.747.068-1.366-1.154-.057-.861-.062-.082 1.393zm8.945-5.774l-.247 4.2 1.99.031.094-1.898.058-3.532-1.885-.018-.01 1.217zm-2.53-1.251l-.317 5.398.415.018 1.299.021.212-4.283.019-1.129-1.385-.013-.243-.012zm-3.117.207l-.298 5.059 2.227.095.269-5.407-2.195-.11-.003.363zm-2.866-.522l-.32 5.43 1.166.078.845.036.254-5.119.005-.312-1.221-.061-.729-.052zM154.526 278.351l-6.361.198.036-.872 6.321-.248-.002-.289-.041-1.32-4.74.148.036-.872 4.675-.184-.06-1.888-2.354.074.035-.872 6.43-.253 7.369.083 10.994.417-.07.796-8.714-.274-.301 2.09 6.789.258-.07.796-6.84-.215-.235 1.633-.028.155 5.599.212-.07.797-5.682-.179-.412 2.228 6.963.263-.07.797-7.048-.222-.262 1.421-.129.623 7.107.269-.07.796-7.21-.227-.515-.016-3.606-.113-1.009-.002-.513-.001-5.445-.012-.514.015-5.946.185.035-.872 5.928-.233.02-1.061-.005-.895-5.576.173.035-.872 5.537-.217-.011-2.218zm9.047-3.425l3.67.139.313-2.087-2.093-.065-4.587-.01.076 1.994 2.621.029zm-1.574 2.582l4.842.183.042-.237.233-1.547-3.949-.124-2.182-.005.051 1.343-.001.376.964.011zm.8 3.109l3.5.133.395-2.225-5.101-.161-.56-.001-.005 2.234 1.771.02zm-.402 2.888l3.368.127.194-.964.191-1.077-3.758-.118-1.367-.003-.002 1.155-.021.864 1.395.016zm-6.192-8.662l4.207.048-.063-1.989-1.901-.004-3.531.11.072 1.883 1.216-.048zm-1.13 2.587l5.408.061-.002-.416-.041-1.298-4.288-.009-1.129.035.053 1.384-.001.243zm.355 3.104l5.068.057-.011-2.229-5.414-.011-.005 2.197.362-.014zm-.385 2.888l5.439.061.022-1.168-.004-.846-5.125-.01-.312.009-.003 1.222-.017.732zM1070.84 404.847l.187-15.194 1.56.184-.094 15.104.518.029 2.369.05.14-11.319 1.559.183-.069 11.171 3.388.072.07-5.624 1.559.184-.095 15.363-.777 17.566-1.683 26.175-1.421-.257 1.234-20.754-3.722-.955-1.039 16.163-1.421-.257.968-16.288-2.907-.746-.275-.086-.858 13.33-1.421-.258.805-13.531-3.958-1.234-1.066 16.578-1.421-.257.998-16.786-2.525-.787-1.104-.377-1.088 16.92-1.421-.257 1.02-17.171-11.861-4.049.231-1.089 11.703 3.911.511-8.586.089-2.407-11.592-1.104.145-1.135 11.493 1.015.484-12.986-11.731-1.117.146-1.135 11.603 1.025.175-14.202 1.56.183-.088 14.164 1.9.168 1.605.091.164-13.32 1.56.184-.083 13.229 3.976.226zm5.367 21.966l-.561 8.736 3.713.985.296-4.985.408-10.941-3.579-.045-.277 6.25zm-4.492-4.047l-.742 11.528.422.127 2.753.73.559-9.404.194-5.203-2.412-.031-.673-.045-.101 2.298zm-5.641 1.555l-.535 8.333 3.953 1.193.722-12.148.05-1.334-4.003-.267-.187 4.223zm-5.14-1.287l-.516 8.02 1.711.571 1.913.578.532-8.949.122-3.26-2.069-.138-1.546-.147-.147 3.325zm16.05-13.786l-.444 10.028 3.57.076.169-4.532.104-8.436-3.381-.042-.018 2.906zm-4.54-2.987l-.57 12.89.746.042 2.33.049.381-10.225.033-2.695-2.484-.032-.436-.029zm-5.593.494l-.534 12.08 3.996.227.481-12.911-3.938-.262-.005.866zm-5.143-1.246l-.573 12.966 2.092.185 1.515.086.456-12.221.009-.746-2.189-.146-1.31-.124z" />
        <path d="M225.524 318.86l.104-6.364.87.077-.053 6.326.289.012 1.321.021.077-4.74.87.076-.039 4.679 1.888.03.039-2.355.869.077-.053 6.434-.433 7.356-.938 10.963-.792-.108.688-8.692-2.074-.4-.579 6.77-.792-.108.539-6.822-1.62-.312-.154-.036-.478 5.582-.792-.107.449-5.667-2.206-.517-.594 6.943-.792-.108.556-7.03-1.407-.33-.616-.157-.606 7.086-.792-.108.569-7.191-6.611-1.696.128-.456 6.523 1.638.285-3.596.05-1.008-6.461-.462.081-.476 6.405.425.27-5.438-6.538-.468.081-.475 6.467.429.098-5.948.869.077-.049 5.932 1.059.07.894.038.092-5.578.869.076-.046 5.541 2.216.095zm2.992 9.199l-.313 3.659 2.069.412.165-2.087.228-4.582-1.995-.019-.154 2.617zm-2.504-1.695l-.414 4.828.235.053 1.535.306.311-3.938.109-2.18-1.345-.012-.375-.019-.056.962zm-3.144.651l-.299 3.491 2.204.499.402-5.088.028-.558-2.231-.112-.104 1.768zm-2.865-.538l-.288 3.358.954.24 1.066.241.297-3.747.068-1.366-1.154-.057-.861-.062-.082 1.393zm8.945-5.774l-.247 4.2 1.99.031.094-1.898.058-3.532-1.885-.018-.01 1.217zm-2.53-1.251l-.317 5.398.415.018 1.299.021.212-4.283.019-1.129-1.385-.013-.243-.012zm-3.117.207l-.298 5.059 2.227.095.269-5.407-2.195-.11-.003.363zm-2.866-.522l-.32 5.43 1.166.078.845.036.254-5.119.005-.312-1.221-.061-.729-.052z" />
    </g>

    <path d="M116.099 394.082l-11.938 4.766 14.035 19.07 12.743 8.312 26.449 6.832 77.723 5.965 64.035 5.285 31.414 24.094 23.406-2.89-22.855-7.211-24.114-22.203-60.898-5.719-80.738-7.996-27.297-4.61-21.965-23.695zm132.869-19.162l-21.479-4.217-12.41-33.277 1.352.124 14.98 24.329 14.764 6.158 10.6-.189-.002.008-3.372 3.453-2.314.559-2.119 3.052z" fill="#4f453d" />

    <g class="gate-left">
        <path d="M559.765 463.089l1.459 29.419-2.481 24.034-7.801 32.985-1.014-.36 7.304-33.027 2.305-23.209-1.108-29.874 1.336.032zM550.935 474.521l1.84 24.505-2.167 19.973-7.364 27.354-1.018-.314 6.867-27.395 2.001-19.287-1.495-24.88 1.336.044zM542.991 488.945l1.363 18.162-1.606 14.803-5.457 20.273-.755-.232 5.09-20.304 1.483-14.295-1.108-18.439.99.032z"
        />
        <path d="M558.277 476.135l-12.256 3.35-4.699 11.77-2.545 12.96-3.25 19.047-5.265 12.73 1.033 1.985 5.529-14.083 3.468-19.605 2.438-12.62 4.664-10.882 11.414-3.102-.531-1.55z"
        />
        <path d="M539.289 503.572l12.089-2.443 8.092-.223-.038 1.721-8.082.159-11.944 2.69-.117-1.904zM537.384 521.537l7.722 3.084 2.986 1.043 6.882 1.758-.088 1.601-7.36-1.65-4.596-1.877-6.023-2.354.477-1.605zM538.045 491.965l2.22-.152 1.39.183.006 1.46-2.299.519-2.087.246.77-2.256zM531.005 523.648l1.923.763 2.071.398.009 1.723-1.706-.1-1.302.014-1.743-.094.748-2.704z"
        />
    </g>

    <g class="gate-right">
        <path d="M567.777 459.441l-3.727 29.218.617 24.154 5.229 33.49 1.039-.281-4.731-33.493-.504-23.318 3.413-29.698-1.336-.072zM575.698 471.521l-3.727 24.29.617 20.08 5.228 27.841 1.039-.234-4.73-27.843-.504-19.385 3.412-24.69-1.335-.059zM582.504 486.516l-2.762 18.002.457 14.882 3.875 20.635.77-.173-3.506-20.637-.374-14.367 2.53-18.298-.99-.044z"
        />
        <path d="M568.253 472.563l11.961 4.287 3.776 12.098 1.536 13.118 1.769 19.24 4.265 13.099-1.183 1.899-4.425-14.467-1.943-19.814-1.456-12.771-3.809-11.21-11.14-3.974.649-1.505z"
        />
        <path d="M585.065 501.385l-11.864-3.37-8.051-.847-.095 1.719 8.046.782 11.7 3.605.264-1.889zM585.576 519.444l-7.938 2.477-3.056.809-6.998 1.222-.036 1.602 7.465-1.076 4.727-1.515 6.188-1.882-.352-1.637zM587.201 489.909l-2.201-.324-1.4.076-.119 1.455 2.253.695 2.061.407-.594-2.309zM591.773 522.041l-1.977.612-2.095.237-.142 1.717 1.709.033 1.296.114 1.746.04-.537-2.753z"
        />
    </g>

    <path class="tree2" d="M720.898 519.313l-9.371-2.513-3.358-3.867 1.39-9.506-1.304-9.408-5.186-16.242-4.137-11.923-1.848-6.444 5.429-7.588 12.456-2.814 8.507.981 8.329 1.124 2.142 3.253 4.86 5.011 5.167 1.496 3.701-1.91-4.156.396-3.188-1.725-3.078-3.907-1.521-2.334 4.591.74 6.305-1.208 3.239-2.581 1.491-2.484 2.883-2.709-.554-1.041-3.584 2.765-1.967 2.956-2.738 1.471-5.348 1.269-4.758-1.011-6.548-1.611-6.248-1.784 7.047-4.95 4.232-2.598 1.351-3.084.649-3.085 2.319-5.08.308-4.062 3.614-5.028-4.027 3.056-.867 2.155-1.748 5.638-1.899 3.871-1.377-2.935-.756-1.6-1.205-1.231-1.405-1.064-.128-2.956-1.32.819.099 3.199 1.484 1.647 1.659 1.875 1.142 3.435-1.335 2.397-2.789 3.096-4.872 3.269-3.861 1.521-5.061 1.821-5.499.643-7.707 1.743 1.655-7.262 6.155-4.304 3.685-3.332 2.228-2.387 2.03-3.183 1.127-2.553 2.503-3.005.027-6.826 1.171-2.453 3.056-3.742-.161-5.39-1.485 4.579-1.966 2.185-2.793 1.893-1.533-3.041-1.454-1.761-.882-1.203-.642-5.458-.823 5.642 1.607 2.88 1.665 3.034 1.139 2.612-.206 5.967-2.137 3.687-1.255 1.996-.964-2.994-5.755-3.659-3.638-1.461-4.91-.788-2.954-1.309-1.182-2.726-.129 3.09 1.612 1.311 2.158.947 3.927 1.47 4.097 1.433 1.979 1.448 1.221.986 1.539 2.245-.248 1.863-1.163 2.329-2.837 2.462-2.793 2.807-2.422 2.336-2.734-4.059-2.01-.78-2.347-.316.578 1.304 1.539 1.647 1.179 1.862.381 2.441-.12 2.725-1.549 2.179-2.003 5.058-1.227 4.247-1.846-3.477-1.773-.632-4.378-3.148-3.853-2.5.698-3.111 1.882-4.319 2.039-5.478.536-3.525-.508-2.374-1.906-1.796-2.958-1.548 2.357 3.641-.024 3.534-.117 4.078-1.117 2.501-2.708 2.632-.835 2.188-.797-1.214-1.423-4.686-.844-7.224 1.036-7.897 1.075-4.061-.623-5.41-2.276-2.225-2.054-1.504-2.793-1.214 2.373 3.019 2.067 4.41.399 3.521-.78 3.492-.975 2.882-.249 2.534-3.301-1.872-3.163-2.322-2.976-1.23-5.379-.432-2.273-.085-4.136 1.475 1.339.851 3.998-1.151 5.244 1.084 1.487 1.044-1.942 1.01-4.117 1.353.393 1.266 7.679-2.189 2.135.967 1.869 1.065.876 1.736 1.02 2.831-.138 4.424 2.016 4.072 3.04 5.882 3.157 3.082 5.332 3.997 2.878 2.853.327 1.51-3.652-1.838-4.382.155-6.171-1.344-2.755-.058-5-1.45-2.901-1.461-4.05-3.471-3.615-5.353-5.349-4.398-4.263-2.491-3.656-1.001-6.264-.083-2.624 1.38-2.783.852-2.09.707 2.238.435 3.291-.469 4.667-.821 2.344.038 4.112.441 2.239 2.064-2.177.808-1.404.754-2.043.722-1.559.172 1.333 1.021 1.851-.223 4.122-1.051 2.617-.194 1.645 1.699 1.419 2.698 3.704 2.909-4.785 1.663-6.16.583-3.099-.985-3.389-2.062-1.034-.221-2.555-1.239-1.24.971 1.824 1.017 1.733 1.326 3.187 1.364 1.571.757-1.866.844-2.991.742 1.004 1.212 2.429-.641 2.559-.575 3.017-1.371 3.674.098 4.196-.344 3.867.162 5.789 4.077 1.892 1.812-2.699 1.441-5.032 3.857-5.889 4.202-8.779 2.251-8.703-.683-4.828-1.204-3.321 1.134-4.953 1.653 1.735.913 4.519-1.334 4.457.134 3.833 1.376-2.721 2.198-2.591 3.421 1.31 1.014 2.637-3.068 3.037-1.699 5.87-1.174 4.705-.135 2.383-.599 4.514-2.019-1.086 3.588-3.898 4.112-2.159 1.286 1.324.37 1.372-.359 3.223-2.402 3.96-4.026.281-3.369 3.05-4.068 3.21-2.021 6.645-1.597 6.431-.783 5.735 2.228 3.543 1.544 1.95 2.809 2.862 5.552 4.074 8.555 3.834 14.914-.748 8.122-.627 6.057-6.352 8.364-6.082 4.215 21.706-1.582 13.229-1.874"/>

    <!-- teeth -->
    <path d="M952.066 524.446l21.072-37.918 7.16 3.743 18.068-49.139 30.366-27.981 11.158-9.849 58.301-18.406 15.629-4.127 19.078-2.811-3.051 5.204-20.818 7.633 3.147 31.649-4.047 15.167.165-14.105-4.817-27.209-8.966.606-.086 16.509-4.892 15.351-.679-13.21-2.317-14.41-13.747 3.034-7.038 12.672-1.802 7.258 7.012 12.37 10.105 12.109 5.991 15.445 14.748 13.639-106.325 40.456-43.415 6.32z" />
    <path d="M1097.61 473.822l8.935-12.918-3.495-21.499 6.885 20.993-2.97 13.99-9.355-.566z" />
    <path d="M1106.66 466.433l10.158 5.335 12.194-17.008 1.306-14.908-8.136-13.708 11.042 11.318 3.427 20.059-19.013 19.286-10.936-1.669-.042-8.705zM1148.25 447.794l9.334-13.687-5.857-25.68 9.556 17.823 3.652 6.069 1.699 3.624-16.118 12.803-2.266-.952z" />

    <!-- tree -->
    <g class="tree" style="transform: translate(0px, 0px)">
        <path d="M1038.63 404.323l17.117-13.427 3.527-10.93-11.231-18.385-5.586-20.551-3.591-38.065-1.956-28.231-1.857-14.918-17.875-10.876-28.165 5.155-16.684 9.506-16.191 9.645-1.558 8.596-5.615 14.61-9.342 7.632-9.315-.685 8.921-2.839 5.058-6.364 2.912-10.765 1.085-6.153-8.819 5.565-14.067 3.054-8.952-2.473-5.259-3.812-8.331-3.05.228-2.636 9.823 2.55 6.659 4.368 6.941.625 12.148-2.087 8.924-6.272 12.089-9.081 11.316-9.178-18.889-4.011-11.014-1.634-5.498-5.173-4.055-5.793-9.251-8.439-4.209-8.107-11.878-7.192 10.996 2.761 3.684 3.684 8.563 10.09 7.323 6.313.259-7.264.151-3.965 1.404-3.6 1.962-3.43-2.337-6.21 3.442.528 2.612 6.686-1.613 4.702-1.772 5.328.667 8.088 4.862 3.77 8.475 3.933 12.925 2.458 9.301-.26 12.042-.697 11.909-3.51 17.43-3.185-9.802-13.523-16.483-3.463-10.532-3.631-6.695-2.963-6.986-4.78-4.572-4.274-7.806-3.997-6.061-14.056-4.573-4.029-9.595-5.031-4.409-11.259 7.09 8.14 5.978 2.777 7.427 1.446.486-7.621 1.45-4.91.762-3.258-3.479-11.822 6.662 10.913-.782 7.355-.765 7.721-.051 6.389 5.672 12.127 7.652 5.726 4.346 3.012-.645-7.022 8.65-12.61 6.22-6.215 9.434-5.945 4.941-5.298.039-6.663 2.985 6.26-2.171 4.122-3.619 3.854-6.807 6.486-7.189 6.56-2.809 4.727-1.65 3.108-1.199 5.985 2.149 3.625 4.447 3.779 8.018 2.584 8.231 3.331 7.05 2.688 2.069-10.777 3.46-3.378 4.563-2.716-.045 3.198-1.726 4.751-.794 4.879 1.363 5.37 2.644 5.514 5.111 3.132 8.582 8.671 6.268 7.682.747-8.796 3.101-2.864 6.261-10.344 5.748-8.547-4.177-5.802-7.68-7.253-9.026-9.506-4.206-6.8-1.04-5.343 2.351-5.381 4.74-5.795-1.659 9.585 3.158 7.267 3.83 8.309 4.504 4.176 7.901 3.045 3.646 3.781.576-3.207-1.186-10.916-4.615-15.643-9.083-15.379-5.791-7.429-3.473-11.707 2.736-6.592 2.914-4.91 4.694-4.96-2.239 8.315-.385 10.914 2.276 7.613 4.679 6.516 4.547 5.087 2.743 5.007 5.162-6.764 4.48-7.571 5.057-5.156 10.715-5.622 4.614-2.175 9.829-.597-2.014 2.934-9.259 1.143-9.862 6.849-2.149 3.46 4.894.377 9.683-.832.302 2.958-17.765 2.239-3.552 3.873-2.919 3.842-.279 4.351.387 6.735 4.176 9.005-.576 10.172-1.095 14.807-3.801 9.134-7.483 12.936-3.426 8.415.654 3.402 5.915-7.003 9.174-3.536 11.547-8.201 5.633-2.542 9.037-7.391 4.697-5.565 5.301-10.721 2.748-14.222 7.163-13.777 6.603-8.889 6.661-5.28 12.846-5.682 6.626.538 6.49-.691 4.933-.38-4.232 2.867-7.202 1.927-10.35 2.412-4.799 2.141-8.095 4.526-2.803 6.228 5.202-.248 3.559.32 4.849-.309 3.367-1.015-1.85 3.277-4.016 1.168-9.425 1.459-5.569 1.901-1.899 4.952-.553 6.814-5.081 9.258 11.332-.779 13.218-4.215 5.526-4.76 5.177-7.234 1.937-1.366 4.181-4.802 3.412.912-2.867 3.701-2.409 4.261-5.374 5.616-2.574 2.943 4.593.1 6.821-1.1-1.005 3.382-5.575.815-5.783 1.065-7.43-.174-7.49 3.433-8.96 2.983-7.833 3.737-8.353 13.501-2.308 5.402 6.835.598 13.771 3.529 15.844 3.487 20.088-3.08 17.35-9.066 8.899-6.729 7.848-.584 11.67-.948-2.775 3.41-10.495 1.225-9.074 4.197-6.698 6.21 7.547 2.14 8.355 4.776-1.811 3.245-8.138-4.009-7.758-.832-13.141 2.741-9.824 3.862-5.443.86-11.085-.193 5.396 6.445 11.658 5.052 5.584.754-2.405 1.928-3.146.466-8.762-2.119-11.711-4.821-3.543-6.701-9.868-5.708-8.399-1.345-15.113 2.551-13.953 4.043-9.868 9.641-5.951 6.301-1.549 7.509-1.019 13.97-.879 21.229 5.211 34.135 8.688 16.096 6.623 11.94 20.458 11.664 16.255 3.344-46.163 15.833-28.936 7.771" />
        <g>
            <g class="spider-dangle">
                <path d="M1015.81 307.156v64.948l-.284.882v-64.681l.284-1.149" />
                <path d="M1009.21 380.597s.812-9.141 5.88-10.733c5.068-1.591 7.119 7.074 2.208 10.002-4.911 2.929-6.881 3.071-6.881 3.071s-.284 2.622-2.416 2.589c-2.131-.032-1.359-4.716 1.209-4.929z" />
                <path d="M1011.01 377.462l-2.351-4.759-3.853-.349-2.546 1.651-1.055 1.637 1.43-1.085 2.28-1.399 3.304.47 2.304 4.192.487-.358" />
                <path d="M1012.04 374.108l-2.351-4.759-3.853-.349-2.546 1.651-1.055 1.638 1.43-1.086 2.28-1.398 3.304.469 2.304 4.193.487-.359M1010.17 378.684l-2.59-3.179-2.961.401-1.633 1.681-.513 1.414.89-1.063 1.477-1.446 2.568-.214 2.457 2.76.305-.354" />
                <g>
                    <path d="M1014.35 379.61l4.811 2.242.437 3.844-1.592 2.582-1.613 1.093 1.053-1.454 1.346-2.312-.546-3.292-4.244-2.208.348-.495" />
                    <path d="M1017.68 378.508l4.811 2.242.437 3.844-1.592 2.583-1.612 1.092 1.052-1.454 1.346-2.312-.546-3.292-4.244-2.207.348-.496M1013.15 380.481l3.237 2.516-.332 2.97-1.643 1.671-1.403.545 1.043-.914 1.411-1.509.156-2.573-2.816-2.393.347-.313" />
                </g>
            </g>
        </g>
        <path d="M1006.05 260.276l21.039 12.27 9.8-8.167c.213.256.426.512.64.768l-10.097 8.414 3.555 19.356 10.04 2.739c.024.009.048.015.071.025.068.031.13.076.178.133.033.038.059.081.079.127.102.237.001.521-.227.641-.089.046-.191.065-.29.053-.025-.002-.049-.009-.074-.014l-9.577-2.612.008.045-14.989 14.281.058.218 26.426 29.211.059.079c.014.029.03.058.041.089.023.061.032.127.029.193-.012.235-.193.435-.427.469-.065.01-.131.007-.194-.01-.064-.016-.124-.044-.177-.083-.026-.02-.048-.044-.072-.066l-26.507-29.301c-.043-.055-.057-.067-.086-.131-.011-.024-.018-.05-.026-.074l-.008-.03-20.68-7.373-.261.223-55.406 2.797-.05-.999 54.782-2.765-8.515-19.453-29.568-7.683.251-.967 28.807 7.484-.017-.039 20.337-20.049-1.763-10.517.986-.166 1.825 10.884zm-10.534 40.5l19.491 6.949-1.375-5.125-13.966-5.383-4.15 3.559zm18.988 1.218l1.407 5.241 14.192-13.522-5.231-1.427-10.368 9.708zm-13.976-5.517l12.783 4.928-1.422-5.301-7.551-2.893-3.81 3.266zm12.211-1.064l1.472 5.486 9.528-8.922-5.757-1.571-5.243 5.007zm-18.579-11.754l-7.736-2.01 8.149 18.619 4.034-3.46-.505-.194-3.942-12.955zm4.757 12.197l.552.213 3.807-3.265-1.38-.529.184-6.558-6.785-1.763 3.622 11.902zm6.284-3.386l6.367 2.441-1.723-6.424-4.644 3.983zm7.242 1.843l4.412-4.214-5.98-1.631 1.568 5.845zm12.604-3.016l4.869 1.328-3.365-18.329-4.484 3.736.575.293 2.405 12.972zm-22.131.298l1.223.468 5.2-4.46-6.266-1.628-.157 5.62zm18.316-12.867l-3.715 3.096 1.712 7.391-.403.385 5.149 1.405-2.227-12.013-.516-.264zm-4.576 3.813l-5.846 4.873 6.89 1.879.426-.407-1.47-6.345zm-12.849 2.592l5.644 1.466-.999-5.958-4.645 4.492zm5.517-5.336l1.112 6.627 5.968-4.974-.036-.155-6.455-2.068-.589.57zm-14.28 3.059l7.629 1.982 5.578-5.394-1.203-7.174-12.004 10.586zm-9.187-2.503l.057.13 7.962 2.069 12.977-11.443-1.648-9.829-19.348 19.073zm31.407.38l2.999-2.499-12.249-6.247 1.109 6.613.525-.508 7.566 2.424.05.217zm-9.456-9.973l13.29 6.778 5.174-4.311-20.007-11.668 1.543 9.201z" />
    </g>

    <path d="M334.674 439.603l-1.35-1.196-.307-1.108.791-2.083.353-2.24.14-4.061.05-3.003.089-1.597 1.323-1.377 2.162.182 1.304.789 1.266.809.149.887.479 1.469.738.685.706-.192-.689-.185-.407-.606-.259-1.099-.105-.635.691.474 1.082.142.673-.376.387-.47.623-.429-.026-.275-.739.396-.492.546-.526.155-.932-.064-.702-.547-.952-.803-.893-.823 1.424-.665.832-.314.401-.616.288-.663.675-1.009.292-.91.879-.911-.827.433-.268.436-.617 1.174-.535.76-.045-.763-.025-.416-.12-.362-.161-.337.156-.685-.26.1-.176.739.14.475.153.54-.022.861-.357.46-.632.524-.975.425-.709.092-.919.081-.919-.217-1.338-.112.698-1.552 1.243-.577.789-.518.5-.399.515-.594.333-.509.58-.522.412-1.561.334-.483.713-.654.296-1.244-.511.949-.445.37-.561.248-.063-.798-.128-.499-.069-.334.223-1.292-.469 1.237.085.766.086.804.026.674-.389 1.352-.563.702-.32.373.024-.749-.702-1.219-.496-.575-.739-.506-.394-.496-.027-.702-.205.699.18.407.289.36.541.596.57.6.23.462.137.307.112.616-.151.41-.325.456-.602.375-.614.457-.528.374-.195-1.11-.275-.312-.357-.228.014.337.148.479.078.505-.085.584-.182.615-.378.396-.623 1.025-.45.891-.088-.919-.246-.262-.513-1.011-.467-.827.297-.666.559-.864.654-1.118.297-.771.06-.577-.198-.538-.381-.55.16.99-.215.807-.262.925-.329.499-.591.422-.264.446-.055-.331.052-1.167.297-1.709.637-1.739.415-.858.223-1.279-.231-.66-.239-.481-.375-.463.2.849.067 1.146-.146.832-.334.748-.328.595-.191.563-.417-.647-.367-.741-.404-.479-.835-.456-.359-.17-.75.063.163.284.709.002.775.596.176.337-.371.102-.74.037-.013.316 1.36.008.284.363.236.368.036.455-.006.715-.286 1.004.08 1.065.135 1.548.321.915.615 1.268.291.844-.038.367-.475-.663-.711-.255-.908-.717-.438-.195-.713-.664-.378-.527-.441-1.062-.259-1.465-.593-1.361-.534-.853-.526-.472-.998-.434-.502.142-.497.01-.377.024.333.248.555.11.796.122.373.164.632.374.235.621-.397.04-.269.08-.371.029-.26-.064.153.322.31.072.722.033.431.129.162.498.066.711.419.912-.865.063-1.022-.275-.437-.431-.419-.696-.153-.12-.335-.453-.256.141.231.353.198.419.429.523.206.277-.349.07-.523-.029.088.344.428.015.444.038.565-.114.582.266.692.199.61.294.683 1.317.195.54-.519.151-1.036.549-1.194.571-1.54-.067-1.352-.733-.701-.596-.6.039-.892.05.223.324.804-.005.705.326.532.569-.567.323-.619.611.149.319.605-.528.588-.187 1.01.12.762.282.417.02.843-.162-.388.749-.87.682-.422.152.189.172.242.009.659-.336.875-.659.246-.752.731-.729.635-.25 1.16.075 1.076.247.785.89.475.589.144.772.127 1.46.141 2.228-.277 3.668-.605 1.809-.462 1.344-1.517 1.494-1.226.561 3.57 1.077 2.23.448zm-33.277-12.438l3.997-1.986 1.163-2.049-1.492-4.16-.267-4.36.861-7.795.781-5.753.247-3.073-3.138-2.928-5.872-.136-3.747 1.216-3.653 1.264-.67 1.662-1.735 2.701-2.194 1.145-1.843-.525 1.91-.199 1.281-1.068 1.032-2.042.474-1.19-2.003.751-2.953.028-1.695-.869-.898-.984-1.546-.959.155-.52 1.867.921 1.156 1.154 1.368.414 2.527.086 2.054-.889 2.806-1.322 2.654-1.372-3.627-1.592-2.145-.786-.889-1.268-.574-1.332-1.507-2.079-.508-1.804-2.087-1.938 2.094 1.011.586.893 1.301 2.383 1.208 1.573.354-1.448.196-.791.431-.664.537-.608-.211-1.344.669.249.247 1.451-.52.878-.577.996-.202 1.653.82.959 1.538 1.143 2.494 1.031 1.88.334 2.447.361 2.539-.21 3.633.085-1.407-3.124-3.166-1.381-1.965-1.167-1.222-.874-1.204-1.25-.741-1.049-1.402-1.127-.633-3.076-.751-.999-1.718-1.41-.418-2.445 1.086 1.93 1.086.807 1.431.599.415-1.511.495-.926.289-.623-.207-2.519.884 2.469-.463 1.445-.475 1.519-.276 1.281.636 2.672 1.299 1.469.747.785.163-1.437 2.262-2.173 1.507-.99 2.143-.802 1.212-.859.285-1.337.34 1.382-.608.738-.887.623-1.637 1.02-1.717 1.019-.761.833-.46.555-.49 1.153.281.817.736.944 1.503.853 1.515 1.011 1.304.833.864-2.079.836-.534 1.029-.356-.142.64-.544.883-.363.947.051 1.135.302 1.218.896.841 1.364 2.099.939 1.804.516-1.736.742-.446 1.688-1.818 1.509-1.478-.597-1.339-1.241-1.776-1.418-2.285-.562-1.541.013-1.116.696-.983 1.193-.967-.732 1.856.333 1.591.423 1.828.732 1.026 1.46.941.575.911.249-.621.216-2.242-.277-3.334-1.185-3.466-.854-1.733-.211-2.497.824-1.21.789-.865 1.149-.801-.795 1.577-.531 2.176.14 1.624.669 1.504.702 1.21.343 1.12 1.318-1.144 1.215-1.334 1.23-.826 2.386-.684 1.017-.245 1.999.289-.526.506-1.908-.156-2.266.966-.575.606.967.279 1.98.236-.062.606-3.662-.289-.874.631-.746.65-.237.862-.203 1.369.465 1.983-.539 2.019-.836 2.929-1.143 1.677-2.041 2.287-1.038 1.548-.01.71 1.48-1.16 1.989-.329 2.661-1.167 1.237-.277 2.122-1.109 1.175-.922 1.511-1.934 1.143-2.742 2.012-2.47 1.696-1.51 1.557-.784 2.817-.607 1.308.383 1.333.131 1.006.129-.969.4-1.527.088-2.179.054-1.053.23-1.814.573-.822 1.134 1.055.167.702.212.987.139.718-.063-.508.581-.855.068-1.954-.099-1.197.15-.588.916-.394 1.346-1.406 1.648 2.309.315 2.83-.297 1.308-.727 1.341-1.238.446-.193 1.039-.791.648.325-.73.624-.661.756-1.313.904-.64.485.919.211 1.416.062-.343.638-1.154-.068-1.205-.027-1.486-.344-1.647.379-1.924.226-1.728.425-2.24 2.365-.688.989 1.348.404 2.62 1.282 3.037 1.359 4.163.216 3.862-1.099 2.068-.982 1.6.209 2.384.295-.699.569-2.159-.19-1.998.466-1.603.969 1.427.744 1.479 1.306-.498.577-1.468-1.144-1.524-.49-2.753.005-2.134.367-1.129-.054-2.219-.499.816 1.519 2.131 1.499 1.091.384-.563.287-.652-.037-1.672-.79-2.151-1.455-.434-1.494-1.745-1.557-1.631-.619-3.141-.116-2.971.232-2.383 1.526-1.458 1.019-.623 1.444-.786 2.763-1.059 4.228-.372 7.073 1.076 3.595.833 2.674 3.625 3.193 3.126 1.348-9.931 1.261-6.136.358zM592.431 439.503c1.299.576 2.205 1.863 2.205 3.356 0 1.823-1.349 3.337-3.116 3.629l-.668 19.456-.509 18.979 1.89 17.006 5.748 45.336-6.719-1.666-2.082-28.859-1.663-29.939.577-18.643 1.171-21.989c-1.244-.598-2.103-1.856-2.103-3.31 0-1.928 1.509-3.511 3.427-3.667l3.121-12.71-1.279 13.021zm44.238 87.26l-8.413 1.397 1.467 12.007-2.042.18-1.563-11.831-1.587.263-3.628.551 1.433 11.737-2.041.179-1.532-11.591-5.686.862 1.156 9.462-2.042.18-1.232-9.32-.396.06-4.177.521 1.391 11.389-2.042.18-1.493-11.301-5.347.667 1.773 14.512-2.042.179-2.418-18.302-1.116-12.282-.137-10.743 2.241-.128.099 3.932 4.869-.05-.1-7.811 2.241-.129.2 7.915 3.404-.035.746-.02-.135-10.562 2.241-.128.268 10.624 5.713-.158-.119-9.25 2.241-.129.236 9.314 2.306-.063 2.73-.118-.126-9.904 2.241-.128.251 9.931 9.944-.428.152-3.13 2.075-.006-.193 3.049 4.694-.202.21.794-4.956.229-.538 8.541.051.63 5.795-.249.209.794-5.938.275.524 6.495 6.436-1.046.332.761-6.701 1.113.542 6.711-1.95.883-.521-7.273zm17.976-13.86l-.595 12.563.61 7.473 2.3-1.052-1.213-6.503 1.297-12.44-2.399-.041zm-51.328 11.784l.807 6.108-5.335.689-.426-3.486-.586-7.65 5.143-.031.397 4.37zm6.456-2.83l1.065 8.061-.606.088-3.956.511-.803-6.576-.279-3.638 3.465-.021.968-.032.146 1.607zm8.103 1.087l.77 5.827-5.681.834-1.037-8.494-.072-.933 5.752-.186.268 2.952zm-109.158-31.192l.268-10.625 2.241.129-.135 10.561.746.021 3.403.035.201-7.915 2.241.128-.1 7.811 4.868.05.1-3.932 2.241.128-.137 10.743-1.116 12.282-2.418 18.303-2.042-.18 1.772-14.512-5.346-.667-1.494 11.302-2.041-.18 1.391-11.389-4.177-.522-.396-.06-1.232 9.32-2.042-.179 1.156-9.462-5.686-.863-1.532 11.592-2.041-.18 1.433-11.737-3.628-.55-1.587-.264-1.563 11.831-2.042-.18 1.467-12.006-17.043-2.831.332-.762 16.816 2.735.733-6.004.129-1.683-16.657-.772.21-.793 16.512.709.696-9.08-16.856-.781.21-.793 16.672.716.251-9.931 2.241.129-.126 9.904 2.73.117 2.306.064.236-9.314 2.241.128-.119 9.251 5.713.158zm116.545 30.292l.74 5.608-2.457.4-2.75.403-.764-6.257-.175-2.279 2.973-.097 2.221-.103.212 2.325zm10.864-2.838l-8.838.41.129 1.683.733 6.004 8.458-1.376-.482-6.721zM529.082 439.98c.111-.01.223-.015.336-.015 2.062 0 3.737 1.649 3.737 3.68 0 1.137-.525 2.154-1.349 2.829l2.616 9.431 1.885 28.066-5.468 42.723-2.883-5.438 5.986-38.276-1.801-26.512-2.222-9.176c-.164.021-.331.032-.501.032-2.062 0-3.737-1.648-3.737-3.679 0-1.438.84-2.684 2.062-3.289l-1.509-10.549 2.848 10.173zm73.12 72.424l.637 7.013-5.129.053-.243-3.169-.149-5.899 4.858-.029.026 2.031zm6.522-2.088l.819 9.013-1.072.03-3.347.034-.548-7.15-.048-1.885 3.569-.022.627-.02zm8.037.345l.767 8.447-5.741.159-.692-9.028 5.658-.183.008.605zm7.388-.871l.824 9.067-3.005.129-2.178.06-.655-8.546-.013-.521 3.146-.102 1.881-.087zm12.256-.568l-9.877.458.695 9.08 8.845-.38-.065-.904.402-8.254zm-119.975-2.111l-.807 6.108 5.335.689.426-3.485.586-7.651-5.143-.031-.397 4.37zm-6.456-2.83l-1.065 8.061.606.089 3.956.511.803-6.576.279-3.639-3.465-.021-.968-.031-.146 1.606zm-8.103 1.087l-.77 5.827 5.68.834 1.038-8.494.071-.933-5.751-.186-.268 2.952zm-7.387-.899l-.741 5.607 2.458.4 2.75.404.764-6.257.175-2.28-2.973-.096-2.222-.103-.211 2.325zm23.061-9.64l-.637 7.012 5.129.053.243-3.169.149-5.898-4.858-.03-.026 2.032zm-6.522-2.088l-.819 9.012 1.072.03 3.347.034.548-7.149.047-1.885-3.568-.022-.627-.02zm-8.037.345l-.767 8.447 5.741.158.692-9.027-5.658-.184-.008.606zm-7.389-.872l-.823 9.067 3.005.129 2.178.06.655-8.545.013-.522-3.146-.101-1.882-.088zM1022.63 616.283l-2.309 31.972 94.166 9.436-3.304-31.517-.479 26.929-4.041-10.6-.891 11.419-3.627-7.299-.117 5.81-5.369-15.096-2.28 15.157-21.681-3.285 1.276-18.391-4.061 18.227-1.529-8.605-2.659 7.85-2.757-11.545-1.374 11.625-14.79-1.071-.287-13.661-4.188 12.882-7.232-1.479-.633-15.599-4.245 15.587-2.998-11.149-4.499 11.121-.092-28.718zm-142.525-13.457l-2.275 31.975 135.247 12.446-5.754-31.696.185 26.977-6.134-10.753-.908 11.418-5.434-7.432.022 5.82-8.183-15.302-2.778 15.12-31.175-3.98 1.234-18.394-5.23 18.142-2.469-8.674-3.557 7.783-4.324-11.659-1.593 11.609-21.229-1.543-.854-13.702-5.584 12.78-10.411-1.712-1.412-15.656-5.58 15.489-4.656-11.271-6.087 11.005-1.061-28.79zm-222.053-86.399l4.298 13.658 28.136-7.667-5.817-12.775 4.034 11.323-2.786-3.935 1.516 4.886-2.158-2.606.867 2.445-3.859-5.652 1.702 6.621-6.651 1.299-2.486-7.849 1.672 8.125-1.765-3.411.462 3.611-2.569-4.489 1.411 5.032-4.355 1.376-2.197-5.679.808 5.905-2.277.274-2.595-6.447 1.211 7.043-2.576-4.294.448 5.207-4.474-12.001zm56.169-15.449l.025 18.228 39.049 1.392-2.322-17.733.625 15.29-1.987-5.841-.018 6.514-1.716-3.987.129 3.299-2.67-8.334-.477 8.69-9.024-.951-.036-10.483-1.115 10.507-.892-4.815-.855 4.563-1.487-6.431-.211 6.65-6.121.015-.535-7.735-1.331 7.481-3.021-.534-.737-8.82-1.272 9.018-1.574-6.197-1.513 6.496-.914-16.282zm166.624-4.651l-1.824-29.393 2.741 28.519.944-11.503 2.373 10.772.412-15.912 1.746 15.431 3.336.738.641-13.22 1.411 13.541 6.64-.432-.486-11.686 2.304 11.189.438-8.066 1.485 8.393.082-18.517 1.165 18.398 9.894 1.07-.417-15.286 3.793 14.452-.495-5.783 2.29 6.884-.68-11.434 2.784 10.121-2.321-26.798 4.424 30.973-41.522.147 1.526 3.424-28.669 8.313-8.196-22.802 7.961 20.138-1.828-8.518 3.911 7.348-3.132-11.611 4.486 10.846 2.41-.109-2.401-9.704 3.854 9.541 4.39-1.594-2.832-8.376 3.953 7.664-1.433-5.93 2.8 5.796-3.912-13.434 4.729 13.107 6.908-1.133-3.557-10.998 5.657 9.742-1.573-4.095 3.021 4.547-2.909-8.155 4.047 6.797-7.308-18.972 6.939 15.57zm-514.672-41.764l-2.072 16.479 63.85 9.467-1.751-16.515-.748 13.951-2.58-5.697-.785 5.883-2.351-3.964-.17 3.009-3.412-8.094-1.788 7.754-14.683-2.757 1.156-9.481-3.046 9.261-.904-4.539-1.931 3.944-1.692-6.125-1.116 5.966-10.035-1.274.019-7.103-3.048 6.482-4.892-1.119-.185-8.125-3.13 7.882-1.863-5.931-3.232 5.553.389-14.907zm708.393-110.413l-2.325 31.971 55.423 6.549-1.008-31.346-1.092 26.883-2.072-10.453-.871 11.421-1.926-7.173-.243 5.801-2.723-14.899-1.805 15.192-12.727-2.618 1.307-18.388-2.95 18.31-.645-8.539-1.809 7.913-1.285-11.435-1.161 11.64-8.718-.618.24-13.622-2.864 12.981-4.233-1.255.093-15.545-2.979 15.681-1.439-11.033-2.995 11.233.807-28.651z" />

    <g fill-opacity=".1">
        <path d="M557.607 542.849l4.304 1.259-4.117 1.233-.187-2.492M555.407 550.281l4.304 1.259-4.117 1.233-.187-2.492M568.332 548.485l-2.876.987 1.997.6.879-1.587zM567.749 552.475l-2.876.986 1.998.6.878-1.586zM574.939 552.129l-3.614 3.584 3.12.207.494-3.791zM765.509 586.895l7.055 2.063-6.749 2.021-.306-4.084M761.903 599.078l7.054 2.064-6.749 2.021-.305-4.085M783.09 596.134l-4.715 1.617 3.275.983 1.44-2.6zM782.135 602.674l-4.715 1.617 3.275.984 1.44-2.601zM793.921 602.107l-5.924 5.876 5.114.339.81-6.215zM1149.92 630.353l-14.383 3.851 9.556-10.601 4.827 6.75M1143.34 605.466l-14.383 3.851 9.557-10.601 4.826 6.75M1084.73 633.915l4.072-16.407-9.21 4.795 5.138 11.612z" />
    </g>

    <defs>
        <linearGradient id="c" x2="1" gradientUnits="userSpaceOnUse" gradientTransform="rotate(27.056 148.296 18.813) scale(878.19)">
            <stop offset="0" stop-color="#fff" stop-opacity=".1" />
            <stop offset="1" stop-color="#b3b3b3" stop-opacity="0" />
        </linearGradient>
        <linearGradient id="d" x2="1" gradientUnits="userSpaceOnUse" gradientTransform="rotate(159.464 635.73 161.054) scale(743.43)">
            <stop offset="0" stop-color="#fff" stop-opacity=".1" />
            <stop offset="1" stop-color="#b3b3b3" stop-opacity="0" />
        </linearGradient>
    </defs>
</svg>